<svg xmlns="http://www.w3.org/2000/svg" xmlns:xlink="http://www.w3.org/1999/xlink" width="500" zoomAndPan="magnify" viewBox="0 0 375 374.999991" height="500" preserveAspectRatio="xMidYMid meet" version="1.0"><defs><clipPath id="177b9450c3"><path d="M 118.59375 112.5 L 234 112.5 L 234 262.5 L 118.59375 262.5 Z M 118.59375 112.5 " clip-rule="nonzero"/></clipPath></defs><rect x="-37.5" width="450" fill="#ffffff" y="-37.499999" height="449.999989" fill-opacity="1"/><rect x="-37.5" width="450" fill="#ffffff" y="-37.499999" height="449.999989" fill-opacity="1"/><path fill="#faa839" d="M 151.515625 203.617188 L 139.734375 203.617188 C 136.90625 203.617188 134.59375 205.929688 134.59375 208.757812 L 134.59375 220.539062 C 134.59375 223.367188 136.90625 225.679688 139.734375 225.679688 L 151.515625 225.679688 C 154.34375 225.679688 156.65625 223.367188 156.65625 220.539062 L 156.65625 208.757812 C 156.65625 205.910156 154.34375 203.617188 151.515625 203.617188 Z M 153.230469 220.539062 C 153.230469 221.480469 152.457031 222.253906 151.515625 222.253906 L 139.734375 222.253906 C 138.792969 222.253906 138.019531 221.480469 138.019531 220.539062 L 138.019531 208.757812 C 138.019531 207.816406 138.792969 207.046875 139.734375 207.046875 L 151.515625 207.046875 C 152.457031 207.046875 153.230469 207.816406 153.230469 208.757812 Z M 153.230469 220.539062 " fill-opacity="1" fill-rule="nonzero"/><path fill="#faa839" d="M 216.867188 156.859375 L 166.789062 156.859375 C 165.375 156.859375 164.21875 158.015625 164.21875 159.429688 C 164.21875 160.84375 165.375 162 166.789062 162 L 216.867188 162 C 218.28125 162 219.4375 160.84375 219.4375 159.429688 C 219.4375 158.015625 218.28125 156.859375 216.867188 156.859375 Z M 216.867188 156.859375 " fill-opacity="1" fill-rule="nonzero"/><path fill="#faa839" d="M 219.4375 188.195312 C 219.4375 186.78125 218.28125 185.625 216.867188 185.625 L 166.789062 185.625 C 165.375 185.625 164.21875 186.78125 164.21875 188.195312 C 164.21875 189.609375 165.375 190.765625 166.789062 190.765625 L 216.867188 190.765625 C 218.28125 190.765625 219.4375 189.609375 219.4375 188.195312 Z M 219.4375 188.195312 " fill-opacity="1" fill-rule="nonzero"/><path fill="#faa839" d="M 162.761719 164.183594 C 161.96875 163.648438 160.917969 163.863281 160.382812 164.65625 L 154.171875 173.929688 C 153.398438 173.460938 152.5 173.203125 151.515625 173.203125 L 139.734375 173.203125 C 138.75 173.203125 137.808594 173.480469 137.015625 173.972656 L 136.84375 173.738281 C 136.308594 172.945312 135.238281 172.753906 134.464844 173.289062 C 133.671875 173.824219 133.480469 174.894531 134.015625 175.664062 L 134.808594 176.84375 C 134.660156 177.316406 134.574219 177.828125 134.574219 178.363281 L 134.574219 190.144531 C 134.574219 192.972656 136.886719 195.285156 139.714844 195.285156 L 151.492188 195.285156 C 154.320312 195.285156 156.632812 192.972656 156.632812 190.144531 L 156.632812 178.363281 C 156.632812 177.808594 156.550781 177.273438 156.378906 176.78125 L 163.210938 166.582031 C 163.746094 165.769531 163.53125 164.699219 162.761719 164.183594 Z M 139.734375 176.628906 L 151.515625 176.628906 C 151.773438 176.628906 152.03125 176.695312 152.242188 176.800781 L 146.804688 184.941406 C 146.480469 185.410156 146.074219 185.667969 145.644531 185.667969 C 145.21875 185.667969 144.8125 185.410156 144.488281 184.960938 L 138.964844 176.84375 C 139.179688 176.695312 139.433594 176.628906 139.734375 176.628906 Z M 153.230469 190.125 C 153.230469 191.066406 152.457031 191.835938 151.515625 191.835938 L 139.734375 191.835938 C 138.792969 191.835938 138.019531 191.066406 138.019531 190.125 L 138.019531 181.535156 L 141.640625 186.867188 C 142.605469 188.28125 144.039062 189.074219 145.625 189.074219 C 145.625 189.074219 145.644531 189.074219 145.644531 189.074219 C 147.230469 189.074219 148.6875 188.261719 149.628906 186.824219 L 153.207031 181.46875 L 153.207031 190.125 Z M 153.230469 190.125 " fill-opacity="1" fill-rule="nonzero"/><path fill="#faa839" d="M 162.761719 134.410156 C 161.96875 133.875 160.917969 134.089844 160.382812 134.882812 L 154.449219 143.707031 C 153.613281 143.128906 152.609375 142.765625 151.492188 142.765625 L 139.714844 142.765625 C 138.578125 142.765625 137.527344 143.128906 136.691406 143.75 C 136.136719 143.128906 135.171875 143 134.464844 143.492188 C 133.671875 144.03125 133.480469 145.101562 134.015625 145.871094 L 134.699219 146.855469 C 134.636719 147.199219 134.59375 147.542969 134.59375 147.90625 L 134.59375 159.6875 C 134.59375 162.515625 136.90625 164.828125 139.734375 164.828125 L 151.515625 164.828125 C 154.34375 164.828125 156.65625 162.515625 156.65625 159.6875 L 156.65625 147.90625 C 156.65625 147.519531 156.613281 147.136719 156.527344 146.769531 L 163.230469 136.769531 C 163.746094 135.996094 163.53125 134.925781 162.761719 134.410156 Z M 151.515625 146.214844 C 151.902344 146.214844 152.265625 146.34375 152.566406 146.578125 L 146.804688 155.167969 C 146.480469 155.636719 146.074219 155.894531 145.644531 155.894531 C 145.21875 155.894531 144.8125 155.636719 144.488281 155.1875 L 138.664062 146.621094 C 138.964844 146.386719 139.328125 146.234375 139.734375 146.234375 L 151.515625 146.234375 Z M 153.230469 159.707031 C 153.230469 160.652344 152.457031 161.421875 151.515625 161.421875 L 139.734375 161.421875 C 138.792969 161.421875 138.019531 160.652344 138.019531 159.707031 L 138.019531 151.761719 L 141.640625 157.09375 C 142.605469 158.507812 144.039062 159.300781 145.625 159.300781 C 145.625 159.300781 145.644531 159.300781 145.644531 159.300781 C 147.230469 159.300781 148.6875 158.488281 149.628906 157.050781 L 153.207031 151.699219 L 153.207031 159.707031 Z M 153.230469 159.707031 " fill-opacity="1" fill-rule="nonzero"/><path fill="#faa839" d="M 250.429688 159.835938 L 246.617188 157.996094 C 242.417969 155.960938 237.320312 157.714844 235.285156 161.914062 L 231.066406 170.609375 L 205.019531 224.160156 C 204.292969 225.636719 203.886719 227.222656 203.800781 228.851562 L 202.835938 247.527344 C 202.792969 248.535156 203.351562 249.5 204.25 249.949219 C 204.59375 250.121094 204.976562 250.207031 205.363281 250.207031 C 205.964844 250.207031 206.5625 249.992188 207.035156 249.585938 L 221.128906 237.289062 C 222.371094 236.21875 223.355469 234.910156 224.085938 233.433594 L 250.128906 179.84375 L 254.351562 171.167969 C 256.40625 166.949219 254.648438 161.871094 250.429688 159.835938 Z M 239.871094 164.121094 C 240.683594 162.429688 242.742188 161.722656 244.410156 162.558594 L 248.222656 164.398438 C 249.917969 165.214844 250.621094 167.269531 249.789062 168.941406 L 246.683594 175.34375 L 236.742188 170.523438 Z M 217.785156 233.476562 L 208.210938 241.832031 L 208.875 229.128906 C 208.917969 228.164062 209.15625 227.242188 209.582031 226.386719 L 209.625 226.300781 L 219.566406 231.121094 L 219.523438 231.207031 C 219.09375 232.085938 218.515625 232.835938 217.785156 233.476562 Z M 221.128906 227.886719 L 219.820312 227.242188 L 211.210938 223.046875 L 233.851562 176.480469 L 243.789062 181.300781 Z M 221.128906 227.886719 " fill-opacity="1" fill-rule="nonzero"/><path fill="#faa839" d="M 166.789062 214.457031 C 165.375 214.457031 164.21875 215.613281 164.21875 217.027344 C 164.21875 218.441406 165.375 219.597656 166.789062 219.597656 L 201.230469 219.597656 C 202.644531 219.597656 203.800781 218.441406 203.800781 217.027344 C 203.800781 215.613281 202.644531 214.457031 201.230469 214.457031 Z M 166.789062 214.457031 " fill-opacity="1" fill-rule="nonzero"/><g clip-path="url(#177b9450c3)"><path fill="#faa839" d="M 230.53125 228.527344 C 229.140625 228.527344 228.003906 229.664062 228.003906 231.054688 L 228.003906 250.054688 C 228.003906 254.105469 224.726562 257.402344 220.65625 257.402344 L 130.996094 257.402344 C 126.949219 257.402344 123.648438 254.125 123.648438 250.054688 L 123.648438 124.945312 C 123.648438 120.894531 126.925781 117.597656 130.996094 117.597656 L 220.65625 117.597656 C 224.707031 117.597656 228.003906 120.875 228.003906 124.945312 L 228.003906 159.644531 C 228.003906 161.035156 229.140625 162.171875 230.53125 162.171875 C 231.925781 162.171875 233.058594 161.035156 233.058594 159.644531 L 233.058594 124.945312 C 233.058594 118.089844 227.511719 112.542969 220.65625 112.542969 L 130.996094 112.542969 C 124.140625 112.542969 118.59375 118.089844 118.59375 124.945312 L 118.59375 250.054688 C 118.59375 256.910156 124.140625 262.457031 130.996094 262.457031 L 220.65625 262.457031 C 227.511719 262.457031 233.058594 256.910156 233.058594 250.054688 L 233.058594 231.054688 C 233.058594 229.664062 231.925781 228.527344 230.53125 228.527344 Z M 230.53125 228.527344 " fill-opacity="1" fill-rule="nonzero"/></g></svg>